<svg width="743" height="741" viewBox="0 0 743 741" fill="none" xmlns="http://www.w3.org/2000/svg">
<path d="M325.75 456.558C290.5 390.933 288.719 364.358 275.092 316.856C253.293 293.56 170.895 133.394 166.5 101L220.5 95C242.503 149.464 282.113 215.85 320.781 260.323C336.916 283.542 361.828 298.745 390.5 298.745C419.172 298.745 444.083 283.542 460.217 260.323C498.887 215.85 536.969 155.466 558.972 101L612.004 107.35C594.178 148.291 533.618 287.252 505.859 316.906C487.648 363.456 490.5 390.933 449.875 456.558C490.5 515.933 515.5 615.933 529.234 708.12L604.234 717.495V740.933H490.5C465.5 665.933 390.5 515.933 390.5 515.933C390.5 515.933 315.5 665.933 290.5 740.933H176.766V717.495L251.766 708.12C265.5 615.933 290.5 515.933 325.75 456.558Z" fill="#7342DC"/>
<path d="M329.562 197.183C329.562 155.37 357.945 123.745 390.5 123.745C423.055 123.745 451.437 155.37 451.437 197.183C451.437 238.995 423.055 270.62 390.5 270.62C357.945 270.62 329.562 238.995 329.562 197.183Z" fill="#7342DC"/>
<path d="M64.7047 4.89062L92.4016 0.00468791L107.098 83.3641C199.472 70.0875 285.414 63.4156 371.32 63.4156C457.23 63.4156 543.167 70.0875 635.544 83.3594L650.241 0L677.937 4.88594L663.369 87.5203C671.541 88.7906 679.77 90.1141 688.056 91.4891L698.219 33.8484L725.917 38.7313L715.777 96.225C724.664 97.7922 733.612 99.4094 742.644 101.089L737.5 128.739C728.55 127.073 719.691 125.473 710.894 123.922L699.869 186.453L672.17 181.57L683.173 119.18C674.883 117.805 666.658 116.484 658.486 115.211L643.209 201.852L615.509 196.97L630.659 111.048C623.542 110.025 601.613 107.378 580.821 104.896C562.892 102.755 545.807 100.735 539.792 99.9828C482.367 94.3063 426.836 91.4469 371.32 91.4469C315.802 91.4469 260.27 94.3063 202.848 99.9828C196.626 100.763 178.555 102.897 159.958 105.119L149.832 106.331C133.154 108.334 117.732 110.22 111.981 111.045L127.133 196.967L99.4344 201.852L84.1578 115.211C75.9891 116.484 67.7609 117.805 59.4734 119.18L70.4734 181.57L42.775 186.452L31.75 123.92C22.9516 125.473 14.0938 127.073 5.14375 128.739L0 101.089C8.94866 99.4266 17.905 97.8057 26.8687 96.2266L16.7281 38.7344L44.425 33.8531L54.5859 91.4938C62.8086 90.1305 71.0378 88.8075 79.2734 87.525L64.7047 4.89062Z" fill="#F78561"/>
</svg>